<?xml version="1.0" standalone="no"?>
<!DOCTYPE svg PUBLIC "-//W3C//DTD SVG 20010904//EN"
 "http://www.w3.org/TR/2001/REC-SVG-20010904/DTD/svg10.dtd">
<svg version="1.0" xmlns="http://www.w3.org/2000/svg"
 width="612.000000pt" height="612.000000pt" viewBox="0 0 612.000000 612.000000"
 preserveAspectRatio="xMidYMid meet">

<g transform="translate(0.000000,612.000000) scale(0.100000,-0.100000)"
fill="#000000" stroke="none">
<path d="M1890 4146 c-526 -110 -892 -555 -892 -1086 0 -500 330 -933 812
-1066 131 -36 363 -45 495 -19 103 20 203 54 290 98 148 74 200 120 723 641
283 281 520 522 527 536 43 83 1 187 -85 210 -83 22 -64 38 -630 -525 -522
-518 -578 -569 -695 -621 -161 -71 -373 -89 -540 -45 -282 73 -511 302 -587
586 -30 112 -29 297 1 410 105 394 485 654 883 605 174 -21 306 -81 456 -206
72 -60 80 -64 127 -64 115 0 178 102 129 206 -33 68 -233 213 -381 274 -137
57 -212 71 -398 76 -118 2 -190 -1 -235 -10z"/>
<path d="M3800 4141 c-157 -35 -268 -81 -399 -168 -70 -46 -183 -153 -594
-562 -280 -278 -517 -519 -527 -536 -51 -83 -10 -191 81 -215 83 -23 71 -32
629 523 283 283 536 528 561 545 172 115 381 168 569 142 533 -71 853 -609
660 -1108 -130 -338 -488 -555 -845 -513 -167 20 -305 77 -431 181 -103 84
-114 90 -163 90 -58 0 -102 -26 -124 -73 -37 -77 -14 -143 76 -218 142 -119
282 -193 445 -236 140 -37 366 -43 503 -14 521 109 881 551 882 1081 0 503
-335 939 -821 1067 -134 35 -375 42 -502 14z"/>
</g>
</svg>
